<svg width="1500.0" height="1000.0" xmlns="http://www.w3.org/2000/svg"><path d="M 1265.0 920.0 C 1278.0 920.0, 1298.0 887.0, 1304.0 816.0 C 1309.0 756.0, 1310.0 687.0, 1310.0 298.0 C 1310.0 244.0, 1310.0 201.0, 1314.0 156.0 L 1340.0 135.0 C 1329.0 116.0, 1307.0 88.0, 1266.0 55.0 C 1248.0 83.0, 1232.0 104.0, 1187.0 108.0 L 579.0 160.0 L 582.0 195.0 L 1223.0 138.0 C 1235.0 137.0, 1247.0 135.0, 1258.0 133.0 C 1259.0 183.0, 1260.0 226.0, 1260.0 273.0 C 1260.0 765.0, 1260.0 786.0, 1249.0 839.0 L 1000.0 774.0 L 997.0 784.0 L 1251.0 899.0 C 1263.0 905.0, 1265.0 916.0, 1265.0 920.0 Z" fill="black" fill-rule="evenodd"/><path d="M 600.0 920.0 C 608.0 905.0, 610.0 883.0, 610.0 835.0 L 610.0 201.0 C 610.0 187.0, 611.0 173.0, 626.0 164.0 C 600.0 146.0, 573.0 132.0, 543.0 120.0 C 557.0 149.0, 560.0 174.0, 560.0 206.0 L 560.0 653.0 C 560.0 732.0, 560.0 838.0, 555.0 859.0 L 537.0 869.0 C 554.0 885.0, 580.0 906.0, 600.0 920.0 Z" fill="black" fill-rule="evenodd"/><path d="M 692.0 349.0 C 702.0 343.0, 717.0 337.0, 737.0 335.0 L 1150.0 298.0 C 1176.0 296.0, 1194.0 296.0, 1214.0 297.0 C 1206.0 278.0, 1192.0 258.0, 1179.0 245.0 C 1172.0 251.0, 1161.0 262.0, 1147.0 263.0 L 710.0 302.0 C 688.0 304.0, 664.0 300.0, 647.0 296.0 C 664.0 313.0, 682.0 334.0, 692.0 349.0 Z" fill="black" fill-rule="evenodd"/><path d="M 768.0 723.0 C 776.0 708.0, 778.0 686.0, 778.0 638.0 L 778.0 489.0 L 777.0 453.0 C 764.0 441.0, 745.0 427.0, 711.0 408.0 C 725.0 437.0, 728.0 462.0, 728.0 494.0 L 728.0 581.0 C 728.0 601.0, 728.0 638.0, 725.0 669.0 L 710.0 676.0 C 727.0 692.0, 748.0 709.0, 768.0 723.0 Z" fill="black" fill-rule="evenodd"/><path d="M 1104.0 629.0 L 1144.0 629.0 L 1157.0 476.0 L 1187.0 455.0 C 1175.0 438.0, 1156.0 415.0, 1117.0 385.0 C 1099.0 411.0, 1083.0 424.0, 1038.0 428.0 L 731.0 454.0 L 734.0 490.0 L 1074.0 459.0 C 1086.0 458.0, 1098.0 456.0, 1109.0 454.0 Z" fill="black" fill-rule="evenodd"/><path d="M 731.0 642.0 L 735.0 677.0 L 1117.0 652.0 C 1143.0 650.0, 1161.0 649.0, 1179.0 649.0 C 1167.0 632.0, 1148.0 610.0, 1134.0 596.0 C 1128.0 601.0, 1099.0 619.0, 1052.0 622.0 Z" fill="black" fill-rule="evenodd"/><path d="M 228.0 673.0 C 236.0 658.0, 238.0 636.0, 238.0 588.0 L 238.0 379.0 L 237.0 326.0 C 223.0 308.0, 196.0 283.0, 167.0 261.0 C 188.0 308.0, 190.0 335.0, 190.0 384.0 L 190.0 531.0 C 190.0 551.0, 190.0 588.0, 187.0 619.0 L 172.0 626.0 C 189.0 642.0, 208.0 659.0, 228.0 673.0 Z" fill="black" fill-rule="evenodd"/><path d="M 415.0 557.0 L 463.0 557.0 L 480.0 361.0 L 510.0 340.0 C 498.0 323.0, 479.0 300.0, 440.0 270.0 C 422.0 296.0, 406.0 308.0, 361.0 313.0 L 217.0 328.0 L 219.0 363.0 L 397.0 344.0 C 409.0 343.0, 421.0 341.0, 432.0 339.0 Z" fill="black" fill-rule="evenodd"/><path d="M 224.0 551.0 L 222.0 586.0 L 440.0 570.0 C 466.0 568.0, 484.0 567.0, 502.0 567.0 C 490.0 550.0, 471.0 528.0, 457.0 514.0 C 451.0 519.0, 423.0 537.0, 375.0 540.0 Z" fill="black" fill-rule="evenodd"/></svg>
