<svg width="1500.0" height="1000.0" xmlns="http://www.w3.org/2000/svg"><path d="M 1260.0 892.0 C 1273.0 892.0, 1300.0 884.0, 1300.0 862.0 L 1300.0 342.0 C 1300.0 288.0, 1300.0 245.0, 1304.0 200.0 L 1330.0 179.0 C 1324.0 159.0, 1300.0 129.0, 1256.0 99.0 C 1238.0 127.0, 1222.0 148.0, 1177.0 152.0 L 225.0 234.0 L 228.0 269.0 L 1213.0 182.0 C 1225.0 181.0, 1237.0 179.0, 1248.0 177.0 C 1249.0 227.0, 1250.0 270.0, 1250.0 317.0 L 1252.0 776.0 L 1149.0 616.0 L 1145.0 618.0 C 1185.0 700.0, 1215.0 789.0, 1255.0 871.0 C 1259.0 877.0, 1260.0 888.0, 1260.0 892.0 Z" fill="black" fill-rule="evenodd"/><path d="M 240.0 880.0 C 248.0 865.0, 250.0 843.0, 250.0 795.0 L 250.0 215.0 C 250.0 201.0, 251.0 187.0, 266.0 178.0 C 240.0 160.0, 213.0 146.0, 183.0 134.0 C 197.0 163.0, 200.0 188.0, 200.0 220.0 L 200.0 613.0 C 200.0 692.0, 200.0 795.0, 195.0 826.0 L 182.0 833.0 C 199.0 849.0, 220.0 866.0, 240.0 880.0 Z" fill="black" fill-rule="evenodd"/><path d="M 436.0 400.0 C 446.0 394.0, 461.0 388.0, 481.0 386.0 L 1024.0 338.0 C 1050.0 336.0, 1068.0 336.0, 1088.0 337.0 C 1080.0 318.0, 1066.0 298.0, 1053.0 285.0 C 1046.0 291.0, 1035.0 302.0, 1021.0 303.0 L 454.0 353.0 C 432.0 355.0, 408.0 351.0, 391.0 347.0 C 408.0 364.0, 426.0 385.0, 436.0 400.0 Z" fill="black" fill-rule="evenodd"/><path d="M 490.0 829.0 C 498.0 814.0, 500.0 792.0, 500.0 744.0 L 500.0 534.0 C 500.0 520.0, 501.0 506.0, 516.0 497.0 C 490.0 479.0, 463.0 465.0, 433.0 453.0 C 447.0 482.0, 450.0 507.0, 450.0 539.0 L 450.0 687.0 C 450.0 707.0, 450.0 744.0, 445.0 775.0 L 432.0 782.0 C 449.0 798.0, 470.0 815.0, 490.0 829.0 Z" fill="black" fill-rule="evenodd"/><path d="M 977.0 736.0 L 1022.0 735.0 L 1054.0 512.0 L 1080.0 491.0 C 1074.0 471.0, 1050.0 441.0, 1006.0 411.0 C 988.0 439.0, 972.0 460.0, 927.0 464.0 L 483.0 502.0 L 486.0 537.0 L 963.0 494.0 C 975.0 493.0, 987.0 491.0, 998.0 489.0 Z" fill="black" fill-rule="evenodd"/><path d="M 483.0 748.0 L 487.0 783.0 L 1035.0 745.0 C 1061.0 743.0, 1079.0 743.0, 1099.0 744.0 C 1083.0 724.0, 1075.0 713.0, 1064.0 702.0 C 1058.0 707.0, 1046.0 709.0, 1032.0 710.0 Z" fill="black" fill-rule="evenodd"/></svg>
